<?xml version="1.0" encoding="UTF-8"?><svg id="uuid-6016ea35-41de-4adf-adec-48db91ea957d" xmlns="http://www.w3.org/2000/svg" xmlns:xlink="http://www.w3.org/1999/xlink" viewBox="0 0 512 358.4"><defs><linearGradient id="uuid-c0e922b2-65cb-4fe0-a74d-2e152ff313fc" x1="0" y1="840.45" x2="512" y2="840.45" gradientTransform="translate(0 -661.25)" gradientUnits="userSpaceOnUse"><stop offset="0" stop-color="#f03"/><stop offset="1" stop-color="#ff2790"/></linearGradient></defs><path d="M501.3,56c-5.9-22-23.2-39.4-45.3-45.3C416.1,0,256,0,256,0c0,0-160.1,0-200,10.7-22,5.9-39.4,23.2-45.3,45.3C0,95.9,0,179.2,0,179.2c0,0,0,83.3,10.7,123.2,5.9,22,23.2,39.4,45.3,45.3,39.9,10.7,200,10.7,200,10.7,0,0,160.1,0,200-10.7,22-5.9,39.4-23.2,45.3-45.3,10.7-39.8,10.7-123.2,10.7-123.2,0,0,0-83.3-10.7-123.2Z" style="fill:url(#uuid-c0e922b2-65cb-4fe0-a74d-2e152ff313fc);"/><path d="M256,337.42l146.92-158.22h-101.72V20.97h-90.41v158.22h-101.72l146.92,158.22h.01Z" style="fill:#fff;"/></svg>