<?xml version="1.0" encoding="utf-8"?>
<!-- Generator: Adobe Illustrator 28.2.0, SVG Export Plug-In . SVG Version: 6.00 Build 0)  -->
<svg version="1.1" id="Layer_1" xmlns="http://www.w3.org/2000/svg" xmlns:xlink="http://www.w3.org/1999/xlink" x="0px" y="0px"
	 viewBox="0 0 512 512" style="enable-background:new 0 0 512 512;" xml:space="preserve">
<style type="text/css">
	.st0{fill:url(#SVGID_1_);}
	.st1{fill:#FFFFFF;}
</style>
<g>
	<linearGradient id="SVGID_1_" gradientUnits="userSpaceOnUse" x1="0" y1="258.1404" x2="512" y2="258.1404">
		<stop  offset="0" style="stop-color:#FF0033"/>
		<stop  offset="1" style="stop-color:#FF2790"/>
	</linearGradient>
	<path class="st0" d="M501.3,134.9c-5.9-22-23.2-39.4-45.3-45.3c-39.9-10.7-200-10.7-200-10.7s-160.1,0-200,10.7
		c-22,5.9-39.4,23.2-45.3,45.3C0,174.8,0,258.1,0,258.1s0,83.3,10.7,123.2c5.9,22,23.2,39.4,45.3,45.3c39.9,10.7,200,10.7,200,10.7
		s160.1,0,200-10.7c22-5.9,39.4-23.2,45.3-45.3C512,341.5,512,258.1,512,258.1S512,174.8,501.3,134.9z"/>
	<path class="st1" d="M230.8,312l-57.5-207.6h50.2l20.1,94.1c5.1,23.2,8.9,42.9,11.3,59.3h1.5c1.7-11.7,5.5-31.4,11.3-59l20.9-94.5
		h50.2L280.5,312v99.6h-49.8L230.8,312L230.8,312z"/>
</g>
</svg>
